<svg width="32" height="32" viewBox="0 0 32 32" fill="none" xmlns="http://www.w3.org/2000/svg">
<path d="M5.01709 31.0416C4.33864 31.0416 3.75623 30.7984 3.26989 30.3121C2.78354 29.8257 2.54036 29.2433 2.54036 28.5649V10.2136C2.08648 10.0418 1.70911 9.74865 1.40828 9.33408C1.10745 8.91952 0.957031 8.44161 0.957031 7.90038V3.43498C0.957031 2.75652 1.2002 2.17412 1.68655 1.68777C2.1729 1.20143 2.7553 0.958252 3.43376 0.958252H28.5636C29.2421 0.958252 29.8245 1.20143 30.3108 1.68777C30.7972 2.17412 31.0404 2.75652 31.0404 3.43498V7.90038C31.0404 8.44161 30.8899 8.91952 30.5891 9.33408C30.2883 9.74865 29.9109 10.0418 29.457 10.2136V28.5649C29.457 29.2433 29.2139 29.8257 28.7275 30.3121C28.2412 30.7984 27.6588 31.0416 26.9803 31.0416H5.01709ZM4.52982 10.3771V28.4889C4.52982 28.6514 4.58814 28.7859 4.70478 28.8922C4.82142 28.9988 4.96603 29.0521 5.13861 29.0521H26.9803C27.1225 29.0521 27.2393 29.0065 27.3306 28.9152C27.4219 28.8239 27.4676 28.7071 27.4676 28.5649V10.3771H4.52982ZM3.43376 8.38765H28.5636C28.7059 8.38765 28.8226 8.34199 28.914 8.25069C29.0053 8.15938 29.0509 8.04261 29.0509 7.90038V3.43498C29.0509 3.29275 29.0053 3.17597 28.914 3.08467C28.8226 2.99336 28.7059 2.94771 28.5636 2.94771H3.43376C3.29152 2.94771 3.17475 2.99336 3.08345 3.08467C2.99214 3.17597 2.94649 3.29275 2.94649 3.43498V7.90038C2.94649 8.04261 2.99214 8.15938 3.08345 8.25069C3.17475 8.34199 3.29152 8.38765 3.43376 8.38765ZM11.5531 17.8825H20.4443V15.9999H11.5531V17.8825Z" fill="#2D264B"/>
</svg>
