<svg width="21" height="21" viewBox="0 0 21 21" fill="none" xmlns="http://www.w3.org/2000/svg">
<mask id="mask0_4851_19298" style="mask-type:alpha" maskUnits="userSpaceOnUse" x="0" y="0" width="21" height="21">
<rect width="21" height="21" fill="#D9D9D9"/>
</mask>
<g mask="url(#mask0_4851_19298)">
<path d="M4.08341 18.375C3.68966 18.375 3.34811 18.2304 3.05878 17.9413C2.76959 17.6519 2.625 17.3104 2.625 16.9166V4.08345C2.625 3.6897 2.76959 3.34816 3.05878 3.05882C3.34811 2.76964 3.68966 2.62504 4.08341 2.62504H12.5928L11.1344 4.08345H4.08341V16.9166H16.9166V9.8147L18.375 8.35629V16.9166C18.375 17.3104 18.2304 17.6519 17.9412 17.9413C17.6519 18.2304 17.3103 18.375 16.9166 18.375H4.08341ZM7.875 13.125V9.40629L16.1219 1.15942C16.2677 1.01358 16.4305 0.906615 16.6103 0.83851C16.7903 0.770552 16.9702 0.736572 17.15 0.736572C17.3348 0.736572 17.5174 0.773031 17.6977 0.845947C17.8783 0.918864 18.0433 1.02824 18.1928 1.17407L19.8115 2.8147C19.9486 2.96009 20.0546 3.12066 20.1294 3.29639C20.2042 3.47211 20.2416 3.65083 20.2416 3.83254C20.2416 4.0144 20.2064 4.19647 20.1359 4.37876C20.0655 4.56105 19.9574 4.72511 19.8115 4.87095L11.5938 13.125H7.875ZM9.33341 11.6666H10.9812L16.3625 6.28538L15.5312 5.46879L14.6928 4.6522L9.33341 9.99692V11.6666Z" fill="url(#paint0_linear_4851_19298)"/>
</g>
<defs>
<linearGradient id="paint0_linear_4851_19298" x1="2.22629" y1="8.2949" x2="20.8455" y2="10.1681" gradientUnits="userSpaceOnUse">
<stop offset="3.01917e-07" stop-color="#006CD4"/>
<stop offset="0.2954" stop-color="#0675D5"/>
<stop offset="0.7849" stop-color="#168FD6"/>
<stop offset="1" stop-color="#1E9CD7"/>
</linearGradient>
</defs>
</svg>
