<svg width="19" height="19" viewBox="0 0 19 19" fill="none" xmlns="http://www.w3.org/2000/svg">
<path d="M2.08341 18.375C1.68966 18.375 1.34811 18.2304 1.05878 17.9413C0.769594 17.6519 0.625 17.3104 0.625 16.9166V4.08345C0.625 3.6897 0.769594 3.34816 1.05878 3.05882C1.34811 2.76964 1.68966 2.62504 2.08341 2.62504H10.5928L9.13437 4.08345H2.08341V16.9166H14.9166V9.8147L16.375 8.35629V16.9166C16.375 17.3104 16.2304 17.6519 15.9412 17.9413C15.6519 18.2304 15.3103 18.375 14.9166 18.375H2.08341ZM5.875 13.125V9.40629L14.1219 1.15942C14.2677 1.01358 14.4305 0.906615 14.6103 0.83851C14.7903 0.770552 14.9702 0.736572 15.15 0.736572C15.3348 0.736572 15.5174 0.773031 15.6977 0.845947C15.8783 0.918864 16.0433 1.02824 16.1928 1.17407L17.8115 2.8147C17.9486 2.96009 18.0546 3.12066 18.1294 3.29639C18.2042 3.47211 18.2416 3.65083 18.2416 3.83254C18.2416 4.0144 18.2064 4.19647 18.1359 4.37876C18.0655 4.56105 17.9574 4.72511 17.8115 4.87095L9.59375 13.125H5.875ZM7.33341 11.6666H8.98125L14.3625 6.28538L13.5312 5.46879L12.6928 4.6522L7.33341 9.99692V11.6666Z" fill="url(#paint0_linear_4851_19300)"/>
<defs>
<linearGradient id="paint0_linear_4851_19300" x1="0.226289" y1="8.2949" x2="18.8455" y2="10.1681" gradientUnits="userSpaceOnUse">
<stop offset="3.01917e-07" stop-color="#006CD4"/>
<stop offset="0.2954" stop-color="#0675D5"/>
<stop offset="0.7849" stop-color="#168FD6"/>
<stop offset="1" stop-color="#1E9CD7"/>
</linearGradient>
</defs>
</svg>
