<svg width="20" height="18" viewBox="0 0 20 18" fill="none" xmlns="http://www.w3.org/2000/svg">
<path d="M10 17.8268L8.89625 16.8345C7.23858 15.3307 5.86775 14.0384 4.78375 12.9578C3.69975 11.8769 2.84075 10.915 2.20675 10.072C1.57275 9.22919 1.12983 8.46027 0.878 7.76527C0.626 7.07044 0.5 6.36536 0.5 5.65002C0.5 4.23086 0.9785 3.04269 1.9355 2.08552C2.89267 1.12852 4.08083 0.650024 5.5 0.650024C6.373 0.650024 7.198 0.854191 7.975 1.26252C8.752 1.67086 9.427 2.25644 10 3.01927C10.573 2.25644 11.248 1.67086 12.025 1.26252C12.802 0.854191 13.627 0.650024 14.5 0.650024C15.9192 0.650024 17.1073 1.12852 18.0645 2.08552C19.0215 3.04269 19.5 4.23086 19.5 5.65002C19.5 6.36536 19.374 7.07044 19.122 7.76527C18.8702 8.46027 18.4272 9.22919 17.7932 10.072C17.1592 10.915 16.3018 11.8769 15.221 12.9578C14.1403 14.0384 12.7679 15.3307 11.1038 16.8345L10 17.8268ZM10 15.8C11.6 14.3604 12.9167 13.1264 13.95 12.098C14.9833 11.0699 15.8 10.1766 16.4 9.41827C17 8.65994 17.4167 7.98652 17.65 7.39802C17.8833 6.80969 18 6.22702 18 5.65002C18 4.65002 17.6667 3.81669 17 3.15002C16.3333 2.48336 15.5 2.15002 14.5 2.15002C13.7103 2.15002 12.9805 2.37402 12.3105 2.82202C11.6407 3.27019 11.1102 3.89361 10.7192 4.69227H9.28075C8.88325 3.88711 8.35117 3.26211 7.6845 2.81727C7.01783 2.37244 6.28967 2.15002 5.5 2.15002C4.50633 2.15002 3.67458 2.48336 3.00475 3.15002C2.33492 3.81669 2 4.65002 2 5.65002C2 6.22702 2.11667 6.80969 2.35 7.39802C2.58333 7.98652 3 8.65994 3.6 9.41827C4.2 10.1766 5.01667 11.0683 6.05 12.0933C7.08333 13.1183 8.4 14.3539 10 15.8Z" fill="#1C1B1F"/>
</svg>
