<svg width="16" height="19" viewBox="0 0 16 19" fill="none" xmlns="http://www.w3.org/2000/svg">
<path d="M14.5231 1.22586C10.188 0.741119 5.81228 0.741119 1.47713 1.22586C1.23219 1.2531 0.999097 1.34576 0.802311 1.49412C0.605525 1.64248 0.452299 1.84107 0.358711 2.06906C0.265124 2.29704 0.234625 2.54602 0.270416 2.78985C0.306207 3.03368 0.406967 3.26339 0.562125 3.45486L4.33113 8.11386C5.41079 9.44853 5.99991 11.1132 6.00012 12.8299V15.9719C6.00004 16.0897 6.0277 16.2058 6.08086 16.3109C6.13402 16.416 6.21119 16.5071 6.30612 16.5769L9.07712 18.6089C9.16358 18.6723 9.26591 18.7105 9.37276 18.7192C9.47961 18.728 9.5868 18.7069 9.68242 18.6585C9.77804 18.61 9.85835 18.5359 9.91443 18.4446C9.97052 18.3532 10.0002 18.2481 10.0001 18.1409V12.8299C10.0004 11.1127 10.5899 9.44766 11.6701 8.11286L15.4381 3.45286C15.593 3.26138 15.6935 3.03177 15.7292 2.78808C15.7648 2.54439 15.7343 2.2956 15.6407 2.06778C15.5472 1.83996 15.394 1.6415 15.1974 1.4932C15.0008 1.3449 14.7679 1.25321 14.5231 1.22586Z" fill="black"/>
</svg>
