<svg width="16" height="16" viewBox="0 0 16 16" fill="none" xmlns="http://www.w3.org/2000/svg">
<g id="si:lock-line">
<path id="Vector" d="M5.34141 6.66967V4.67006C5.34141 3.19701 6.53451 2.00391 8.00756 2.00391C9.48061 2.00391 10.6737 3.19701 10.6737 4.67006V6.66967M8.00756 10.0024C8.18434 10.0024 8.35387 9.93214 8.47887 9.80714C8.60387 9.68214 8.6741 9.5126 8.6741 9.33582C8.6741 9.15905 8.60387 8.98951 8.47887 8.86451C8.35387 8.73951 8.18434 8.66928 8.00756 8.66928C7.83078 8.66928 7.66125 8.73951 7.53625 8.86451C7.41125 8.98951 7.34102 9.15905 7.34102 9.33582C7.34102 9.5126 7.41125 9.68214 7.53625 9.80714C7.66125 9.93214 7.83078 10.0024 8.00756 10.0024ZM8.00756 10.0024V12.002M4.40826 6.66967H11.6069C12.1934 6.66967 12.6733 7.14958 12.6733 7.73613V12.4019C12.6733 13.2817 11.9535 14.0016 11.0736 14.0016H4.94149C4.06166 14.0016 3.3418 13.2817 3.3418 12.4019V7.73613C3.3418 7.14958 3.8217 6.66967 4.40826 6.66967Z" stroke="white" stroke-miterlimit="10" stroke-linecap="round" stroke-linejoin="round"/>
</g>
</svg>
