<svg width="16" height="16" viewBox="0 0 16 16" fill="none" xmlns="http://www.w3.org/2000/svg">
<g id="iconoir:cash" clip-path="url(#clip0_6474_12847)">
<g id="Group">
<path id="Vector" d="M1.33398 11.3324V4.66706C1.33398 4.31351 1.47443 3.97443 1.72443 3.72443C1.97443 3.47443 2.31351 3.33398 2.66706 3.33398H13.3317C13.6852 3.33398 14.0243 3.47443 14.2743 3.72443C14.5243 3.97443 14.6647 4.31351 14.6647 4.66706V11.3324C14.6647 11.686 14.5243 12.0251 14.2743 12.2751C14.0243 12.5251 13.6852 12.6655 13.3317 12.6655H2.66706C2.31351 12.6655 1.97443 12.5251 1.72443 12.2751C1.47443 12.0251 1.33398 11.686 1.33398 11.3324Z" stroke="white" stroke-linecap="round" stroke-linejoin="round"/>
<path id="Vector_2" d="M12.3291 8.00652L12.3357 7.99919M3.66406 8.00652L3.67073 7.99919M7.99656 9.99947C7.46623 9.99947 6.95762 9.7888 6.58262 9.4138C6.20762 9.0388 5.99694 8.53019 5.99694 7.99986C5.99694 7.46953 6.20762 6.96092 6.58262 6.58592C6.95762 6.21092 7.46623 6.00024 7.99656 6.00024C8.52689 6.00024 9.0355 6.21092 9.4105 6.58592C9.7855 6.96092 9.99617 7.46953 9.99617 7.99986C9.99617 8.53019 9.7855 9.0388 9.4105 9.4138C9.0355 9.7888 8.52689 9.99947 7.99656 9.99947Z" stroke="white" stroke-linecap="round" stroke-linejoin="round"/>
</g>
</g>
<defs>
<clipPath id="clip0_6474_12847">
<rect width="15.9969" height="15.9969" fill="white" transform="translate(0 0.00146484)"/>
</clipPath>
</defs>
</svg>
