<svg width="16" height="16" viewBox="0 0 16 16" fill="none" xmlns="http://www.w3.org/2000/svg">
<g id="heroicons:receipt-refund">
<path id="Vector" d="M5.50195 6.503H8.75195C9.21608 6.503 9.6612 6.68737 9.98939 7.01556C10.3176 7.34375 10.502 7.78887 10.502 8.253C10.502 8.71713 10.3176 9.16225 9.98939 9.49044C9.6612 9.81863 9.21608 10.003 8.75195 10.003H8.00195M5.50195 6.503L7.00195 5.003M5.50195 6.503L7.00195 8.003M13.002 3.17433V14.503L10.502 13.503L8.00195 14.503L5.50195 13.503L3.00195 14.503V3.17433C3.00195 2.43567 3.53929 1.803 4.27329 1.71767C6.75074 1.43005 9.25316 1.43005 11.7306 1.71767C12.464 1.803 13.002 2.43567 13.002 3.17433Z" stroke="white" stroke-linecap="round" stroke-linejoin="round"/>
</g>
</svg>
